#!OML:ASF F:\VICON\USERDATA\INSTALL\rory3\rory3.ASF
:FULLY-SPECIFIED
:DEGREES
450
root 0.0574011 15.7894 -3.39019 343.697 -37.0944 -358.622
lowerback 18.5957 4.06185 -1.99617
upperback 9.71786 4.7845 1.31484
thorax -0.223422 2.19313 1.62867
lowerneck -21.0036 3.24751 -7.70244
upperneck 20.9573 6.26936 2.88224
head 9.78098 2.60913 3.15938
rclavicle -1.59028e-015 2.14687e-014
rhumerus -27.6331 11.7682 -89.0224
rradius 80.6498
rwrist 32.5431
rhand -19.8428 10.5718
rfingers 7.12502
rthumb 6.4916 -19.3087
lclavicle -1.59028e-015 2.14687e-014
lhumerus -20.0489 -20.173 92.2551
lradius 63.4539
lwrist -9.81325
lhand -17.8009 17.1357
lfingers 7.12502
lthumb 8.46246 46.9461
rfemur -48.4497 -19.6297 21.6036
rtibia 104.869
rfoot 5.37586 -5.86611
rtoes 7.04681
lfemur -44.1513 34.8311 -16.969
ltibia 99.7175
lfoot -2.26503 -7.49085
ltoes -20.5299
451
root 0.0557724 15.7924 -3.38786 343.819 -37.1996 -358.791
lowerback 18.6929 4.09078 -1.92757
upperback 9.64218 4.8342 1.39935
thorax -0.358672 2.2204 1.66058
lowerneck -20.9196 3.19819 -7.90055
upperneck 20.9525 6.22604 3.00677
head 9.75524 2.58915 3.22616
rclavicle -4.12975e-014 -6.36111e-015
rhumerus -27.8657 11.7541 -88.8822
rradius 80.9087
rwrist 32.4967
rhand -19.9731 10.4067
rfingers 7.12502
rthumb 6.36581 -19.4777
lclavicle -4.12975e-014 -6.36111e-015
lhumerus -20.1564 -19.8445 92.4213
lradius 63.4905
lwrist -9.87016
lhand -17.6596 17.394
lfingers 7.12502
lthumb 8.59883 47.1989
rfemur -48.7346 -19.3937 21.8078
rtibia 105.332
rfoot 5.29097 -5.6125
rtoes 7.08667
lfemur -44.1677 34.9524 -16.7709
ltibia 99.767
lfoot -2.2356 -7.32538
ltoes -20.5793
452
root 0.0542233 15.7928 -3.38346 343.87 -37.3001 -358.91
lowerback 18.8001 4.11745 -1.85892
upperback 9.59078 4.87893 1.43635
thorax -0.468454 2.24544 1.6438
lowerneck -20.8373 3.18614 -8.03134
upperneck 20.9337 6.21291 3.12903
head 9.72499 2.58883 3.28484
rclavicle -6.65929e-015 -2.80286e-014
rhumerus -28.0459 11.65 -88.7886
rradius 81.1124
rwrist 32.4381
rhand -20.158 10.2471
rfingers 7.12502
rthumb 6.18727 -19.6425
lclavicle -6.65929e-015 -2.80286e-014
lhumerus -20.2681 -19.6587 92.5164
lradius 63.5638
lwrist -9.86841
lhand -17.5589 17.622
lfingers 7.12502
lthumb 8.69601 47.4229
rfemur -48.9871 -19.1664 21.9197
rtibia 105.833
rfoot 5.12968 -5.28266
rtoes 7.39334
lfemur -44.1231 35.0608 -16.5967
ltibia 99.7998
lfoot -2.27509 -7.21917
ltoes -20.934
453
root 0.0534563 15.7908 -3.37846 343.903 -37.4065 -359.06
lowerback 18.8533 4.11746 -1.7222
upperback 9.62549 4.89782 1.44871
thorax -0.449425 2.25779 1.57509
lowerneck -20.7361 3.22028 -8.06533
upperneck 20.8096 6.2381 3.21291
head 9.65595 2.61342 3.31521
rclavicle 9.89451e-014 -4.1546e-014
rhumerus -28.1127 11.5671 -88.7233
rradius 81.3268
rwrist 32.3867
rhand -20.1799 10.1349
rfingers 7.12502
rthumb 6.16613 -19.7554
lclavicle 9.89451e-014 -4.1546e-014
lhumerus -20.23 -19.5495 92.4987
lradius 63.6002
lwrist -9.84512
lhand -17.6087 17.5309
lfingers 7.12502
lthumb 8.64793 47.3338
rfemur -49.221 -18.9352 22.03
rtibia 106.379
rfoot 4.96424 -4.95148
rtoes 7.82377
lfemur -44.039 35.2078 -16.3642
ltibia 99.8448
lfoot -2.25776 -7.17906
ltoes -20.7999
454
root 0.0517828 15.7914 -3.37227 343.806 -37.5132 -359.021
lowerback 18.8558 4.13024 -1.72752
upperback 9.71201 4.90836 1.39833
thorax -0.353813 2.26128 1.52668
lowerneck -20.7193 3.25942 -8.0825
upperneck 20.6874 6.2581 3.35806
head 9.60104 2.64418 3.36615
rclavicle -7.55382e-014 2.66371e-014
rhumerus -28.1002 11.552 -88.6836
rradius 81.5801
rwrist 32.311
rhand -20.1756 10.1277
rfingers 7.12502
rthumb 6.17025 -19.7624
lclavicle -7.55382e-014 2.66371e-014
lhumerus -20.1324 -19.4236 92.4251
lradius 63.6124
lwrist -9.92825
lhand -17.8548 17.2289
lfingers 7.12502
lthumb 8.41046 47.0415
rfemur -49.4323 -18.7524 21.9561
rtibia 106.954
rfoot 4.93072 -4.68047
rtoes 7.09028
lfemur -43.866 35.3543 -16.2856
ltibia 99.8451
lfoot -2.24522 -7.11977
ltoes -20.6178
